<?xml version="1.0" standalone="no"?>
<!DOCTYPE svg PUBLIC "-//W3C//DTD SVG 20010904//EN"
 "http://www.w3.org/TR/2001/REC-SVG-20010904/DTD/svg10.dtd">
<svg version="1.0" xmlns="http://www.w3.org/2000/svg"
 width="16.000000pt" height="16.000000pt" viewBox="0 0 16.000000 16.000000"
 preserveAspectRatio="xMidYMid meet">

<g transform="translate(0.000000,16.000000) scale(0.100000,-0.100000)"
fill="#000000" stroke="none">
<path d="M21 86 c-13 -54 -13 -56 -2 -56 8 0 25 90 17 97 -2 2 -9 -16 -15 -41z"/>
<path d="M89 113 c-11 -15 -11 -16 1 -5 25 22 31 13 24 -33 -4 -30 -3 -45 5
-45 6 0 8 6 5 13 -3 8 -1 24 4 38 17 45 -11 68 -39 32z"/>
<path d="M64 82 c-6 -4 -7 -18 -4 -32 6 -21 8 -22 14 -8 10 23 4 49 -10 40z"/>
</g>
</svg>
